<svg xmlns="http://www.w3.org/2000/svg" width="820" height="251" viewBox="0 0 820 251" role="img" aria-label="cs profile list">
<rect x="0.5" y="0.5" width="819" height="250" rx="9" fill="#17181b" stroke="#2c2f35"/>
<path d="M0.5 32 V9.5 a9 9 0 0 1 9 -9 H810.5 a9 9 0 0 1 9 9 V32 Z" fill="#1f2125" stroke="#2c2f35"/>
<circle cx="18" cy="16" r="5.5" fill="#3a3d43"/>
<circle cx="36" cy="16" r="5.5" fill="#3a3d43"/>
<circle cx="54" cy="16" r="5.5" fill="#3a3d43"/>
<text x="410.0" y="20.5" text-anchor="middle" fill="#9aa0aa" font-family="Geist, -apple-system, BlinkMacSystemFont, Segoe UI, Helvetica, Arial, sans-serif" font-size="12.5">cs profile list</text>
<g font-family="'Geist Mono', ui-monospace, SFMono-Regular, Menlo, Consolas, 'DejaVu Sans Mono', 'Liberation Mono', monospace" font-size="13.0" fill="#dfe4ea" style="font-variant-ligatures:none;font-feature-settings:'liga' 0,'calt' 0" xml:space="preserve">
<text x="20.0" y="60.0" fill="#5f6670" textLength="7.8" lengthAdjust="spacingAndGlyphs">$</text>
<text x="35.6" y="60.0" fill="#f4f7fa" font-weight="700" textLength="117.0" lengthAdjust="spacingAndGlyphs">cs profile list</text>
<text x="35.6" y="97.7" textLength="54.6" lengthAdjust="spacingAndGlyphs">default</text>
<text x="51.2" y="116.5" textLength="23.4" lengthAdjust="spacingAndGlyphs">dir</text>
<text x="98.0" y="116.5" textLength="273.0" lengthAdjust="spacingAndGlyphs">~/.claude (CLAUDE_CONFIG_DIR unset)</text>
<text x="51.2" y="135.4" textLength="31.2" lengthAdjust="spacingAndGlyphs">pool</text>
<text x="98.0" y="135.4" textLength="140.4" lengthAdjust="spacingAndGlyphs">personal, research</text>
<text x="51.2" y="154.2" textLength="31.2" lengthAdjust="spacingAndGlyphs">live</text>
<text x="98.0" y="154.2" textLength="62.4" lengthAdjust="spacingAndGlyphs">personal</text>
<text x="35.6" y="173.1" textLength="31.2" lengthAdjust="spacingAndGlyphs">work</text>
<text x="51.2" y="191.9" textLength="23.4" lengthAdjust="spacingAndGlyphs">dir</text>
<text x="98.0" y="191.9" textLength="109.2" lengthAdjust="spacingAndGlyphs">~/.claude-work</text>
<text x="51.2" y="210.8" textLength="31.2" lengthAdjust="spacingAndGlyphs">pool</text>
<text x="98.0" y="210.8" textLength="132.6" lengthAdjust="spacingAndGlyphs">work-1, work-team</text>
<text x="51.2" y="229.6" textLength="31.2" lengthAdjust="spacingAndGlyphs">live</text>
<text x="98.0" y="229.6" textLength="46.8" lengthAdjust="spacingAndGlyphs">work-1</text>
</g>
</svg>
